<svg width="24" height="24" viewBox="0 0 24 24" fill="none" xmlns="http://www.w3.org/2000/svg">
<path d="M7 18H9.1L15.1 12.05L12.95 9.9L7 15.85V18ZM15.8 11.35L16.85 10.25C16.95 10.15 17 10.0333 17 9.9C17 9.76667 16.95 9.65 16.85 9.55L15.45 8.15C15.35 8.05 15.2333 8 15.1 8C14.9667 8 14.85 8.05 14.75 8.15L13.65 9.2L15.8 11.35ZM5 22C4.45 22 3.97933 21.8043 3.588 21.413C3.19667 21.0217 3.00067 20.5507 3 20V6C3 5.45 3.196 4.97933 3.588 4.588C3.98 4.19667 4.45067 4.00067 5 4H9.2C9.41667 3.4 9.77933 2.91667 10.288 2.55C10.7967 2.18333 11.3673 2 12 2C12.6327 2 13.2037 2.18333 13.713 2.55C14.2223 2.91667 14.5847 3.4 14.8 4H19C19.55 4 20.021 4.196 20.413 4.588C20.805 4.98 21.0007 5.45067 21 6V20C21 20.55 20.8043 21.021 20.413 21.413C20.0217 21.805 19.5507 22.0007 19 22H5ZM5 20H19V6H5V20ZM12 5.25C12.2167 5.25 12.396 5.179 12.538 5.037C12.68 4.895 12.7507 4.716 12.75 4.5C12.7493 4.284 12.6783 4.105 12.537 3.963C12.3957 3.821 12.2167 3.75 12 3.75C11.7833 3.75 11.6043 3.821 11.463 3.963C11.3217 4.105 11.2507 4.284 11.25 4.5C11.2493 4.716 11.3203 4.89533 11.463 5.038C11.6057 5.18067 11.7847 5.25133 12 5.25Z" fill="currentColor"/>
</svg>
