<svg width="24" height="24" viewBox="0 0 24 24" fill="none" xmlns="http://www.w3.org/2000/svg">
<path fill-rule="evenodd" clip-rule="evenodd" d="M2.92513 12.0001C2.92513 6.98811 6.98814 2.92509 12.0001 2.92509C17.0121 2.92509 21.0751 6.98811 21.0751 12.0001C21.0751 17.0121 17.0121 21.0751 12.0001 21.0751C6.98814 21.0751 2.92513 17.0121 2.92513 12.0001ZM12.0002 7.50833C12.4558 7.50833 12.8252 7.8777 12.8252 8.33333V12.4583C12.8252 12.914 12.4558 13.2833 12.0002 13.2833C11.5446 13.2833 11.1752 12.914 11.1752 12.4583V8.33333C11.1752 7.8777 11.5446 7.50833 12.0002 7.50833ZM12.9168 15.6667C12.9168 16.1729 12.5064 16.5833 12.0001 16.5833C11.4938 16.5833 11.0834 16.1729 11.0834 15.6667C11.0834 15.1604 11.4938 14.75 12.0001 14.75C12.5064 14.75 12.9168 15.1604 12.9168 15.6667Z" fill="currentColor"/>
</svg>
