<svg width="20" height="20" viewBox="0 0 20 20" fill="none" xmlns="http://www.w3.org/2000/svg">
<path d="M14.1667 5.45003C15.0871 5.45003 15.8333 4.70384 15.8333 3.78337C15.8333 2.86289 15.0871 2.1167 14.1667 2.1167C13.2462 2.1167 12.5 2.86289 12.5 3.78337C12.5 4.70384 13.2462 5.45003 14.1667 5.45003Z" fill="currentColor"/>
<path d="M11.6668 14.1666H10.0002C10.0002 15.5416 8.87516 16.6666 7.50016 16.6666C6.12516 16.6666 5.00016 15.5416 5.00016 14.1666C5.00016 12.7916 6.12516 11.6666 7.50016 11.6666V9.99992C5.20016 9.99992 3.3335 11.8666 3.3335 14.1666C3.3335 16.4666 5.20016 18.3333 7.50016 18.3333C9.80016 18.3333 11.6668 16.4666 11.6668 14.1666ZM14.1668 11.2499H12.6168L14.0085 8.19159C14.5168 7.08325 13.7002 5.83325 12.4668 5.83325H8.1335C7.4585 5.83325 6.85016 6.22492 6.57516 6.83325L6.01683 8.33325L7.61683 8.77492L8.1585 7.49992H10.0002L8.47516 10.9166C7.97516 12.0249 8.80016 13.3333 10.0168 13.3333H14.1668V17.4999H15.8335V12.9166C15.8335 11.9999 15.0835 11.2499 14.1668 11.2499Z" fill="currentColor"/>
</svg>
