<svg width="24" height="24" viewBox="0 0 24 24" fill="none" xmlns="http://www.w3.org/2000/svg">
<rect width="24" height="24" fill="#2D2D2D"/>
<g id="&#236;&#187;&#180;&#237;&#143;&#172;&#235;&#132;&#140;&#237;&#138;&#184;">
<path d="M-233 -826C-233 -827.105 -232.105 -828 -231 -828H4104C4105.1 -828 4106 -827.105 4106 -826V4069C4106 4070.1 4105.1 4071 4104 4071H-231C-232.105 4071 -233 4070.1 -233 4069V-826Z" fill="white"/>
<path d="M-231 -828V-827H4104V-828V-829H-231V-828ZM4106 -826H4105V4069H4106H4107V-826H4106ZM4104 4071V4070H-231V4071V4072H4104V4071ZM-233 4069H-232V-826H-233H-234V4069H-233ZM-231 4071V4070C-231.552 4070 -232 4069.55 -232 4069H-233H-234C-234 4070.66 -232.657 4072 -231 4072V4071ZM4106 4069H4105C4105 4069.55 4104.55 4070 4104 4070V4071V4072C4105.66 4072 4107 4070.66 4107 4069H4106ZM4104 -828V-827C4104.55 -827 4105 -826.552 4105 -826H4106H4107C4107 -827.657 4105.66 -829 4104 -829V-828ZM-231 -828V-829C-232.657 -829 -234 -827.657 -234 -826H-233H-232C-232 -826.552 -231.552 -827 -231 -827V-828Z" fill="black" fill-opacity="0.1"/>
<rect id="Rectangle 310" x="-44" y="-27" width="139" height="150" rx="10" stroke="#FF06B8" stroke-width="4"/>
<g id="Icon/Add">
<rect x="-15.5" y="-15.5" width="81" height="55" rx="4.5" stroke="#9747FF" stroke-dasharray="10 5"/>
<g id="Property 1=24">
<path id="Vector" d="M18.8571 13.1429H13.1429V18.8571C13.1429 19.1602 13.0224 19.4509 12.8081 19.6653C12.5938 19.8796 12.3031 20 12 20C11.6969 20 11.4062 19.8796 11.1919 19.6653C10.9776 19.4509 10.8571 19.1602 10.8571 18.8571V13.1429H5.14286C4.83975 13.1429 4.54906 13.0225 4.33474 12.8081C4.12041 12.5938 4 12.3031 4 12C4 11.6969 4.12041 11.4062 4.33474 11.1919C4.54906 10.9776 4.83975 10.8571 5.14286 10.8571H10.8571V5.14286C10.8571 4.83975 10.9776 4.54906 11.1919 4.33473C11.4062 4.12041 11.6969 4 12 4C12.3031 4 12.5938 4.12041 12.8081 4.33473C13.0224 4.54906 13.1429 4.83975 13.1429 5.14286V10.8571H18.8571C19.1602 10.8571 19.4509 10.9776 19.6653 11.1919C19.8796 11.4062 20 11.6969 20 12C20 12.3031 19.8796 12.5938 19.6653 12.8081C19.4509 13.0225 19.1602 13.1429 18.8571 13.1429Z" fill="#5F5F5F"/>
</g>
</g>
</g>
</svg>
