<svg width="20" height="20" viewBox="0 0 20 20" fill="none" xmlns="http://www.w3.org/2000/svg">
<path d="M14.8998 1.6007H5.10018C4.53396 1.61102 3.99493 1.84545 3.60128 2.25258C3.20764 2.65972 2.9915 3.20633 3.00026 3.77258V16.2267C2.99689 16.5944 3.08682 16.957 3.26166 17.2805C3.43649 17.604 3.69051 17.8779 3.99996 18.0766C4.28985 18.2626 4.6222 18.372 4.9659 18.3947C5.30961 18.4173 5.65344 18.3524 5.96524 18.2061L9.72725 16.4479C9.81241 16.4074 9.90553 16.3864 9.99983 16.3864C10.0941 16.3864 10.1872 16.4074 10.2724 16.4479L14.0348 18.2062C14.3466 18.3526 14.6904 18.4175 15.0341 18.3949C15.3778 18.3722 15.7101 18.2628 16 18.0767C16.3095 17.878 16.5636 17.6041 16.7384 17.2806C16.9132 16.957 17.0031 16.5944 16.9997 16.2267V3.77258C17.0085 3.20633 16.7924 2.65972 16.3987 2.25258C16.0051 1.84545 15.466 1.61102 14.8998 1.6007ZM12.7999 6.50052H7.2001C7.01446 6.50052 6.83642 6.42678 6.70515 6.29551C6.57388 6.16424 6.50013 5.98619 6.50013 5.80055C6.50013 5.6149 6.57388 5.43686 6.70515 5.30559C6.83642 5.17432 7.01446 5.10058 7.2001 5.10058H12.7999C12.9855 5.10058 13.1636 5.17432 13.2949 5.30559C13.4261 5.43686 13.4999 5.6149 13.4999 5.80055C13.4999 5.98619 13.4261 6.16424 13.2949 6.29551C13.1636 6.42678 12.9855 6.50052 12.7999 6.50052Z" fill="currentColor"/>
</svg>
