<svg width="20" height="20" viewBox="0 0 20 20" fill="none" xmlns="http://www.w3.org/2000/svg">
<path d="M13.3333 9.16658H12.5V2.49992C12.5 1.58325 11.75 0.833252 10.8333 0.833252H9.16667C8.25 0.833252 7.5 1.58325 7.5 2.49992V9.16658H6.66667C4.36667 9.16658 2.5 11.0333 2.5 13.3333V19.1666H17.5V13.3333C17.5 11.0333 15.6333 9.16658 13.3333 9.16658ZM15.8333 17.4999H14.1667V14.9999C14.1667 14.5416 13.7917 14.1666 13.3333 14.1666C12.875 14.1666 12.5 14.5416 12.5 14.9999V17.4999H10.8333V14.9999C10.8333 14.5416 10.4583 14.1666 10 14.1666C9.54167 14.1666 9.16667 14.5416 9.16667 14.9999V17.4999H7.5V14.9999C7.5 14.5416 7.125 14.1666 6.66667 14.1666C6.20833 14.1666 5.83333 14.5416 5.83333 14.9999V17.4999H4.16667V13.3333C4.16667 11.9583 5.29167 10.8333 6.66667 10.8333H13.3333C14.7083 10.8333 15.8333 11.9583 15.8333 13.3333V17.4999Z" fill="currentColor"/>
</svg>
