<svg width="20" height="21" viewBox="0 0 20 21" fill="none" xmlns="http://www.w3.org/2000/svg">
<path d="M8.83366 12.0003L7.04199 10.2087C6.88922 10.0559 6.69477 9.97949 6.45866 9.97949C6.22255 9.97949 6.0281 10.0559 5.87533 10.2087C5.72255 10.3614 5.64616 10.5559 5.64616 10.792C5.64616 11.0281 5.72255 11.2225 5.87533 11.3753L8.25033 13.7503C8.41699 13.917 8.61144 14.0003 8.83366 14.0003C9.05588 14.0003 9.25033 13.917 9.41699 13.7503L14.1253 9.04199C14.2781 8.88921 14.3545 8.69477 14.3545 8.45866C14.3545 8.22255 14.2781 8.0281 14.1253 7.87533C13.9725 7.72255 13.7781 7.64616 13.542 7.64616C13.3059 7.64616 13.1114 7.72255 12.9587 7.87533L8.83366 12.0003ZM10.0003 18.8337C8.84755 18.8337 7.76422 18.6148 6.75033 18.177C5.73644 17.7392 4.85449 17.1456 4.10449 16.3962C3.35449 15.6467 2.76088 14.7648 2.32366 13.7503C1.88644 12.7359 1.66755 11.6525 1.66699 10.5003C1.66644 9.3481 1.88533 8.26477 2.32366 7.25033C2.76199 6.23588 3.3556 5.35394 4.10449 4.60449C4.85338 3.85505 5.73533 3.26144 6.75033 2.82366C7.76533 2.38588 8.84866 2.16699 10.0003 2.16699C11.152 2.16699 12.2353 2.38588 13.2503 2.82366C14.2653 3.26144 15.1473 3.85505 15.8962 4.60449C16.6451 5.35394 17.2389 6.23588 17.6778 7.25033C18.1167 8.26477 18.3353 9.3481 18.3337 10.5003C18.332 11.6525 18.1131 12.7359 17.677 13.7503C17.2409 14.7648 16.6473 15.6467 15.8962 16.3962C15.1451 17.1456 14.2631 17.7395 13.2503 18.1778C12.2375 18.6162 11.1542 18.8348 10.0003 18.8337Z" fill="currentColor"/>
</svg>
