<svg width="24" height="24" viewBox="0 0 24 24" fill="none" xmlns="http://www.w3.org/2000/svg">
<path d="M16.0406 17.6568L12 13.6162L7.95939 17.6568C7.74506 17.8712 7.45437 17.9916 7.15127 17.9916C6.84816 17.9916 6.55747 17.8712 6.34315 17.6568C6.12882 17.4425 6.00841 17.1518 6.00841 16.8487C6.00841 16.5456 6.12882 16.2549 6.34314 16.0406L10.3838 12L6.34315 7.95938C6.12882 7.74505 6.00841 7.45436 6.00841 7.15126C6.00841 6.84815 6.12882 6.55746 6.34315 6.34313C6.55747 6.12881 6.84816 6.0084 7.15127 6.0084C7.45437 6.0084 7.74506 6.12881 7.95939 6.34313L12 10.3837L16.0406 6.34313C16.2549 6.12881 16.5456 6.0084 16.8487 6.0084C17.1518 6.0084 17.4425 6.12881 17.6569 6.34313C17.8712 6.55746 17.9916 6.84815 17.9916 7.15126C17.9916 7.45436 17.8712 7.74505 17.6569 7.95938L13.6162 12L17.6569 16.0406C17.8712 16.2549 17.9916 16.5456 17.9916 16.8487C17.9916 17.1518 17.8712 17.4425 17.6569 17.6568C17.4425 17.8712 17.1518 17.9916 16.8487 17.9916C16.5456 17.9916 16.2549 17.8712 16.0406 17.6568Z" fill="currentColor"/>
</svg>
