<svg width="16" height="16" viewBox="0 0 16 16" fill="none" xmlns="http://www.w3.org/2000/svg">
<path d="M12.6133 4.00648C12.48 3.61315 12.1067 3.33315 11.6667 3.33315H4.33333C3.89333 3.33315 3.52667 3.61315 3.38667 4.00648L2 7.99981V13.3331C2 13.6998 2.3 13.9998 2.66667 13.9998H3.33333C3.7 13.9998 4 13.6998 4 13.3331V12.6665H12V13.3331C12 13.6998 12.3 13.9998 12.6667 13.9998H13.3333C13.7 13.9998 14 13.6998 14 13.3331V7.99981L12.6133 4.00648ZM4.33333 10.6665C3.78 10.6665 3.33333 10.2198 3.33333 9.66648C3.33333 9.11314 3.78 8.66648 4.33333 8.66648C4.88667 8.66648 5.33333 9.11314 5.33333 9.66648C5.33333 10.2198 4.88667 10.6665 4.33333 10.6665ZM11.6667 10.6665C11.1133 10.6665 10.6667 10.2198 10.6667 9.66648C10.6667 9.11314 11.1133 8.66648 11.6667 8.66648C12.22 8.66648 12.6667 9.11314 12.6667 9.66648C12.6667 10.2198 12.22 10.6665 11.6667 10.6665ZM3.33333 7.33314L4.33333 4.33315H11.6667L12.6667 7.33314H3.33333Z" fill="currentColor"/>
</svg>
