<svg width="16" height="16" viewBox="0 0 16 16" fill="none" xmlns="http://www.w3.org/2000/svg">
<path d="M9.24171 9.80499C8.81648 10.3283 8.60387 10.59 8.34789 10.685C8.1234 10.7684 7.87646 10.7684 7.65198 10.685C7.396 10.59 7.18338 10.3283 6.75815 9.80499L5.78637 8.60895C5.10869 7.77487 4.76984 7.35783 4.7676 7.00638C4.76565 6.70078 4.90354 6.41107 5.14195 6.21988C5.41613 6 5.95347 6 7.02815 6H8.97171C10.0464 6 10.5837 6 10.8579 6.21988C11.0963 6.41107 11.2342 6.70078 11.2323 7.00638C11.23 7.35783 10.8912 7.77487 10.2135 8.60895L9.24171 9.80499Z" fill="currentColor"/>
</svg>
