<svg width="20" height="20" viewBox="0 0 20 20" fill="none" xmlns="http://www.w3.org/2000/svg">
<path d="M14.9998 13.3333H13.3332V12.5H6.6665V13.3333H4.99984V12.5H1.6665V16.6667H18.3332V12.5H14.9998V13.3333Z" fill="currentColor"/>
<path d="M16.6665 6.66659H14.1665V4.99992C14.1665 4.08325 13.4165 3.33325 12.4998 3.33325H7.49984C6.58317 3.33325 5.83317 4.08325 5.83317 4.99992V6.66659H3.33317C2.4165 6.66659 1.6665 7.41658 1.6665 8.33325V11.6666H4.99984V9.99992H6.6665V11.6666H13.3332V9.99992H14.9998V11.6666H18.3332V8.33325C18.3332 7.41658 17.5832 6.66659 16.6665 6.66659ZM12.4998 6.66659H7.49984V4.99992H12.4998V6.66659Z" fill="currentColor"/>
</svg>
