<svg width="20" height="20" viewBox="0 0 20 20" fill="none" xmlns="http://www.w3.org/2000/svg">
<path d="M9 7.66667H10.3333V6.33333H9M9.66667 15C6.72667 15 4.33333 12.6067 4.33333 9.66667C4.33333 6.72667 6.72667 4.33333 9.66667 4.33333C12.6067 4.33333 15 6.72667 15 9.66667C15 12.6067 12.6067 15 9.66667 15ZM9.66667 3C8.79119 3 7.92428 3.17244 7.11544 3.50747C6.30661 3.8425 5.57168 4.33356 4.95262 4.95262C3.70238 6.20286 3 7.89856 3 9.66667C3 11.4348 3.70238 13.1305 4.95262 14.3807C5.57168 14.9998 6.30661 15.4908 7.11544 15.8259C7.92428 16.1609 8.79119 16.3333 9.66667 16.3333C11.4348 16.3333 13.1305 15.631 14.3807 14.3807C15.631 13.1305 16.3333 11.4348 16.3333 9.66667C16.3333 8.79119 16.1609 7.92428 15.8259 7.11544C15.4908 6.30661 14.9998 5.57168 14.3807 4.95262C13.7617 4.33356 13.0267 3.8425 12.2179 3.50747C11.4091 3.17244 10.5421 3 9.66667 3ZM9 13H10.3333V9H9V13Z" fill="currentColor"/>
</svg>
