<svg width="24" height="24" viewBox="0 0 24 24" fill="none" xmlns="http://www.w3.org/2000/svg">
<g clip-path="url(#clip0_2273_89446)">
<path d="M14.5556 12.1746C16.5376 12.1746 18.1429 10.5693 18.1429 8.58731C18.1429 6.60532 16.5376 5 14.5556 5C12.5736 5 10.9683 6.60532 10.9683 8.58731C10.9683 10.5693 12.5736 12.1746 14.5556 12.1746ZM6.48414 10.381V7.69048H4.69048V10.381H2V12.1746H4.69048V14.8651H6.48414V12.1746H9.17462V10.381H6.48414ZM14.5556 13.9683C12.1611 13.9683 7.38097 15.17 7.38097 17.5556V19.3492H21.7302V17.5556C21.7302 15.17 16.9501 13.9683 14.5556 13.9683Z" fill="#535353"/>
</g>
<defs>
<clipPath id="clip0_2273_89446">
<rect width="24" height="24" fill="white"/>
</clipPath>
</defs>
</svg>
