<svg width="20" height="20" viewBox="0 0 20 20" fill="none" xmlns="http://www.w3.org/2000/svg">
<path d="M12.363 13.3172C12.1881 13.3172 12.1382 13.2759 12.1007 13.1379L11.2261 8.69655L11.1636 8.24138H11.1261V14.8345C11.1261 14.9448 11.0762 15 10.9637 15H9.75178C9.63933 15 9.58936 14.9448 9.58936 14.8345V5.16552C9.58936 5.05517 9.63933 5 9.75178 5H11.5134C11.6884 5 11.7758 5.06897 11.8008 5.22069L12.7379 10.0207H12.7629L13.6999 5.22069C13.7249 5.06897 13.8124 5 13.9873 5H15.7489C15.8614 5 15.9114 5.05517 15.9114 5.16552V14.8345C15.9114 14.9448 15.8614 15 15.7489 15H14.537C14.4246 15 14.3746 14.9448 14.3746 14.8345V8.24138H14.3371L14.2746 8.69655L13.4001 13.1379C13.3626 13.2759 13.3126 13.3172 13.1377 13.3172H12.363Z" fill="#919191"/>
<path d="M7.51176 15L6.1499 10.531H5.71261V14.8345C5.71261 14.9448 5.66263 15 5.55019 15H4.2508C4.13836 15 4.08838 14.9448 4.08838 14.8345V5.16552C4.08838 5.05517 4.13836 5 4.2508 5H5.55019C5.66263 5 5.71261 5.05517 5.71261 5.16552V8.97241H6.17489L7.33684 5H9.01105L7.56174 9.77241V9.81379L9.19846 15H7.51176Z" fill="#919191"/>
</svg>
