<svg width="20" height="20" viewBox="0 0 20 20" fill="none" xmlns="http://www.w3.org/2000/svg">
<path d="M14.1665 5.00008H12.4998V2.50008C12.4998 2.04175 12.1248 1.66675 11.6665 1.66675H8.33317C7.87484 1.66675 7.49984 2.04175 7.49984 2.50008V5.00008H5.83317C4.9165 5.00008 4.1665 5.75008 4.1665 6.66675V15.8334C4.1665 16.7501 4.9165 17.5001 5.83317 17.5001C5.83317 17.9584 6.20817 18.3334 6.6665 18.3334C7.12484 18.3334 7.49984 17.9584 7.49984 17.5001H12.4998C12.4998 17.9584 12.8748 18.3334 13.3332 18.3334C13.7915 18.3334 14.1665 17.9584 14.1665 17.5001C15.0832 17.5001 15.8332 16.7501 15.8332 15.8334V6.66675C15.8332 5.75008 15.0832 5.00008 14.1665 5.00008ZM7.9165 15.0001H6.6665V7.50008H7.9165V15.0001ZM10.6248 15.0001H9.37484V7.50008H10.6248V15.0001ZM11.2498 5.00008H8.74984V2.91675H11.2498V5.00008ZM13.3332 15.0001H12.0832V7.50008H13.3332V15.0001Z" fill="currentColor"/>
</svg>
