<svg width="17" height="16" viewBox="0 0 17 16" fill="none" xmlns="http://www.w3.org/2000/svg">
<path fill-rule="evenodd" clip-rule="evenodd" d="M8.0175 13.6016C8.0175 13.6016 3.83301 10.0774 3.83301 6.60974C3.83301 5.38716 4.31868 4.21465 5.18317 3.35016C6.04766 2.48567 7.22017 2 8.44274 2C9.66532 2 10.8378 2.48567 11.7023 3.35016C12.5668 4.21465 13.0525 5.38716 13.0525 6.60974C13.0525 10.0774 8.86799 13.6016 8.86799 13.6016C8.6352 13.8159 8.25202 13.8136 8.0175 13.6016ZM8.44274 8.6265C8.70759 8.6265 8.96984 8.57433 9.21452 8.47298C9.45921 8.37163 9.68153 8.22307 9.86881 8.0358C10.0561 7.84853 10.2046 7.6262 10.306 7.38152C10.4073 7.13683 10.4595 6.87458 10.4595 6.60974C10.4595 6.34489 10.4073 6.08264 10.306 5.83796C10.2046 5.59327 10.0561 5.37095 9.86881 5.18367C9.68153 4.9964 9.45921 4.84785 9.21452 4.74649C8.96984 4.64514 8.70759 4.59298 8.44274 4.59298C7.90787 4.59298 7.3949 4.80546 7.01668 5.18367C6.63846 5.56189 6.42598 6.07486 6.42598 6.60974C6.42598 7.14462 6.63846 7.65759 7.01668 8.0358C7.3949 8.41402 7.90787 8.6265 8.44274 8.6265Z" fill="currentColor"/>
</svg>
