<svg width="24" height="28" viewBox="0 0 24 28" fill="none" xmlns="http://www.w3.org/2000/svg">
<path d="M19.8347 0H3.50059C2.55681 0.0171997 1.65835 0.407943 1.00222 1.08656C0.346092 1.76517 -0.0141698 2.67628 0.000426872 3.6201V24.3787C-0.00518703 24.9916 0.14472 25.5959 0.436132 26.1351C0.727544 26.6744 1.15094 27.1309 1.66674 27.4621C2.14994 27.7721 2.70389 27.9546 3.27678 27.9923C3.84967 28.0301 4.42278 27.9219 4.94249 27.6779L11.213 24.7475C11.355 24.6799 11.5102 24.6449 11.6674 24.6449C11.8245 24.6449 11.9797 24.6799 12.1217 24.7475L18.3928 27.6782C18.9125 27.9222 19.4856 28.0304 20.0585 27.9927C20.6314 27.9549 21.1854 27.7725 21.6686 27.4624C22.1844 27.1312 22.6078 26.6746 22.8992 26.1353C23.1906 25.596 23.3405 24.9916 23.3349 24.3787V3.6201C23.3495 2.67628 22.9892 1.76517 22.3331 1.08656C21.6769 0.407943 20.7785 0.0171997 19.8347 0ZM16.3345 8.16705H7.00076C6.69133 8.16705 6.39457 8.04413 6.17576 7.82533C5.95696 7.60653 5.83404 7.30977 5.83404 7.00033C5.83404 6.6909 5.95696 6.39414 6.17576 6.17533C6.39457 5.95653 6.69133 5.83361 7.00076 5.83361H16.3345C16.644 5.83361 16.9407 5.95653 17.1595 6.17533C17.3783 6.39414 17.5013 6.6909 17.5013 7.00033C17.5013 7.30977 17.3783 7.60653 17.1595 7.82533C16.9407 8.04413 16.644 8.16705 16.3345 8.16705Z" fill="currentColor"/>
</svg>
