<svg width="32" height="32" viewBox="0 0 32 32" fill="currentColor" xmlns="http://www.w3.org/2000/svg">
<path d="M18.6663 24C18.6663 24.7072 18.3854 25.3855 17.8853 25.8856C17.3852 26.3857 16.7069 26.6667 15.9997 26.6667C15.2924 26.6667 14.6142 26.3857 14.1141 25.8856C13.614 25.3855 13.333 24.7072 13.333 24C13.333 23.2928 13.614 22.6145 14.1141 22.1144C14.6142 21.6143 15.2924 21.3333 15.9997 21.3333C16.7069 21.3333 17.3852 21.6143 17.8853 22.1144C18.3854 22.6145 18.6663 23.2928 18.6663 24ZM18.6663 16C18.6663 16.7072 18.3854 17.3855 17.8853 17.8856C17.3852 18.3857 16.7069 18.6667 15.9997 18.6667C15.2924 18.6667 14.6142 18.3857 14.1141 17.8856C13.614 17.3855 13.333 16.7072 13.333 16C13.333 15.2928 13.614 14.6145 14.1141 14.1144C14.6142 13.6143 15.2924 13.3333 15.9997 13.3333C16.7069 13.3333 17.3852 13.6143 17.8853 14.1144C18.3854 14.6145 18.6663 15.2928 18.6663 16ZM15.9997 10.6667C16.7069 10.6667 17.3852 10.3857 17.8853 9.88561C18.3854 9.38552 18.6663 8.70724 18.6663 7.99999C18.6663 7.29275 18.3854 6.61447 17.8853 6.11438C17.3852 5.61428 16.7069 5.33333 15.9997 5.33333C15.2924 5.33333 14.6142 5.61428 14.1141 6.11438C13.614 6.61447 13.333 7.29275 13.333 7.99999C13.333 8.70724 13.614 9.38552 14.1141 9.88561C14.6142 10.3857 15.2924 10.6667 15.9997 10.6667Z" fill="currentColor"/>
</svg>
