<svg width="20" height="20" viewBox="0 0 20 20" fill="none" xmlns="http://www.w3.org/2000/svg">
<path d="M17.5556 2L17.4133 2.02667L12.6667 3.86667L7.33333 2L2.32 3.68889C2.13333 3.75111 2 3.91111 2 4.11556V17.5556C2 17.8044 2.19556 18 2.44444 18L2.58667 17.9733L7.33333 16.1333L12.6667 18L17.68 16.3111C17.8667 16.2489 18 16.0889 18 15.8844V2.44444C18 2.19556 17.8044 2 17.5556 2ZM8.22222 4.19556L11.7778 5.44V15.8044L8.22222 14.56V4.19556ZM3.77778 5.07556L6.44444 4.17778V14.5778L3.77778 15.6089V5.07556ZM16.2222 14.9244L13.5556 15.8222V5.43111L16.2222 4.4V14.9244Z" fill="#617D6D"/>
</svg>
