<svg width="24" height="24" viewBox="0 0 24 24" fill="none" xmlns="http://www.w3.org/2000/svg">
<path d="M12 2C12.6326 2 13.2036 2.18322 13.7129 2.5498C14.042 2.78672 14.3093 3.07289 14.5156 3.40723C14.1866 4.03245 14 4.74439 14 5.5C14 5.66904 14.0102 5.8358 14.0283 6H5V20H19V9.9707C19.7345 9.88947 20.4155 9.63255 21 9.24121V20C21 20.55 20.8044 21.0211 20.4131 21.4131C20.0218 21.8051 19.5507 22.0007 19 22H5C4.45 22 3.97922 21.8044 3.58789 21.4131C3.19657 21.0218 3.00067 20.5507 3 20V6C3 5.45 3.19589 4.97922 3.58789 4.58789C3.97989 4.19656 4.45067 4.00067 5 4H9.2002C9.41686 3.40003 9.77944 2.91646 10.2881 2.5498C10.7967 2.18321 11.3674 2 12 2ZM15.0996 12.0498L9.09961 18H7V15.8496L12.9502 9.90039L15.0996 12.0498ZM14.8203 8.08984C15.3467 8.83632 16.0942 9.41504 16.9678 9.73145C16.9879 9.78454 17 9.84059 17 9.90039C16.9999 10.0336 16.9495 10.1501 16.8496 10.25L15.7998 11.3496L13.6504 9.2002L14.75 8.15039C14.7726 8.1278 14.796 8.10733 14.8203 8.08984ZM12 3.75C11.7833 3.75 11.6042 3.82089 11.4629 3.96289C11.3216 4.10489 11.2507 4.284 11.25 4.5C11.2493 4.71599 11.3202 4.89542 11.4629 5.03809C11.6056 5.18075 11.7847 5.25133 12 5.25C12.2167 5.25 12.3961 5.1791 12.5381 5.03711C12.6801 4.89511 12.7507 4.716 12.75 4.5C12.7493 4.284 12.6784 4.10489 12.5371 3.96289C12.3958 3.82089 12.2167 3.75 12 3.75Z" fill="#5F5F5F"/>
<circle cx="18.5" cy="5.5" r="3.5" fill="#27C287"/>
</svg>
