<svg width="20" height="21" viewBox="0 0 20 21" fill="none" xmlns="http://www.w3.org/2000/svg">
<path d="M18.3332 17.9999C17.4082 17.9999 16.8915 17.6916 16.5165 17.4666C16.2082 17.2832 16.0165 17.1666 15.5582 17.1666C15.0915 17.1666 14.9082 17.2749 14.5998 17.4666C14.2165 17.6916 13.7082 17.9999 12.7832 17.9999C11.8582 17.9999 11.3415 17.6916 10.9665 17.4666C10.6582 17.2832 10.4665 17.1666 10.0082 17.1666C9.5415 17.1666 9.35817 17.2749 9.04984 17.4666C8.6665 17.6916 8.14984 17.9999 7.22484 17.9999C6.29984 17.9999 5.78317 17.6916 5.40817 17.4666C5.09984 17.2749 4.90817 17.1666 4.44984 17.1666C3.9915 17.1666 3.79984 17.2749 3.4915 17.4666C3.10817 17.6916 2.5915 17.9999 1.6665 17.9999V16.3332C2.13317 16.3332 2.3165 16.2249 2.62484 16.0332C3.00817 15.8082 3.52484 15.4999 4.44984 15.4999C5.37484 15.4999 5.8915 15.8082 6.2665 16.0332C6.57484 16.2249 6.75817 16.3332 7.22484 16.3332C7.6915 16.3332 7.87484 16.2249 8.18317 16.0332C8.5665 15.8082 9.08317 15.4999 10.0082 15.4999C10.9332 15.4999 11.4498 15.8082 11.8248 16.0332C12.1332 16.2166 12.3248 16.3332 12.7832 16.3332C13.2415 16.3332 13.4332 16.2249 13.7415 16.0332C14.1165 15.8082 14.6332 15.4999 15.5582 15.4999C16.4832 15.4999 16.9998 15.8082 17.3748 16.0332C17.6832 16.2249 17.8665 16.3332 18.3332 16.3332V17.9999ZM18.3332 14.2499C17.4082 14.2499 16.8915 13.9416 16.5165 13.7166C16.2082 13.5332 16.0165 13.4166 15.5582 13.4166C15.0915 13.4166 14.9082 13.5249 14.5998 13.7166C14.2248 13.9416 13.7082 14.2499 12.7832 14.2499C11.8582 14.2499 11.3415 13.9416 10.9665 13.7166C10.6582 13.5332 10.4665 13.4166 10.0082 13.4166C9.5415 13.4166 9.35817 13.5249 9.04984 13.7166C8.67484 13.9416 8.15817 14.2499 7.23317 14.2499C6.30817 14.2499 5.7915 13.9416 5.4165 13.7166C5.10817 13.5332 4.9165 13.4166 4.45817 13.4166C3.99984 13.4166 3.80817 13.5249 3.49984 13.7166C3.10817 13.9416 2.5915 14.2499 1.6665 14.2499V12.5832C2.13317 12.5832 2.3165 12.4749 2.62484 12.2832C2.99984 12.0582 3.5165 11.7499 4.4415 11.7499C5.3665 11.7499 5.88317 12.0582 6.25817 12.2832C6.5665 12.4666 6.75817 12.5832 7.2165 12.5832C7.68317 12.5832 7.8665 12.4749 8.17484 12.2832C8.54984 12.0582 9.0665 11.7499 9.9915 11.7499C10.9165 11.7499 11.4332 12.0582 11.8082 12.2832C12.1165 12.4666 12.3082 12.5832 12.7665 12.5832C13.2248 12.5832 13.4165 12.4749 13.7248 12.2832C14.0998 12.0582 14.6165 11.7499 15.5415 11.7499C16.4665 11.7499 16.9832 12.0582 17.3582 12.2832C17.6665 12.4666 17.8582 12.5832 18.3165 12.5832V14.2499H18.3332ZM7.22484 10.4999C7.6915 10.4999 7.87484 10.3916 8.18317 10.1999C8.5665 9.97489 9.08317 9.66655 10.0082 9.66655C10.9332 9.66655 11.4498 9.97489 11.8248 10.1999C12.1332 10.3832 12.3248 10.4999 12.7832 10.4999C13.2415 10.4999 13.4332 10.3916 13.7415 10.1999C13.8415 10.1416 13.9582 10.0749 14.0832 10.0082L8.73317 4.66655C7.4415 3.37489 6.24984 2.99155 4.1665 2.99989V5.08322C5.68317 5.07489 6.57484 5.40822 7.49984 6.33322L8.33317 7.16655L5.62484 9.87489C5.88317 9.97489 6.0915 10.0999 6.2665 10.1999C6.57484 10.3916 6.75817 10.4999 7.22484 10.4999Z" fill="currentColor"/>
<path d="M13.7498 7.16667C14.9004 7.16667 15.8332 6.23393 15.8332 5.08333C15.8332 3.93274 14.9004 3 13.7498 3C12.5992 3 11.6665 3.93274 11.6665 5.08333C11.6665 6.23393 12.5992 7.16667 13.7498 7.16667Z" fill="currentColor"/>
</svg>
