<svg width="20" height="21" viewBox="0 0 20 21" fill="none" xmlns="http://www.w3.org/2000/svg">
<path d="M14.1665 2.16675H5.83317C4.9165 2.16675 4.1665 2.91675 4.1665 3.83341V5.50008C4.1665 6.41675 4.9165 7.16675 5.83317 7.16675H14.1665C15.0832 7.16675 15.8332 6.41675 15.8332 5.50008V3.83341C15.8332 2.91675 15.0832 2.16675 14.1665 2.16675ZM14.1665 5.50008H5.83317V3.83341H14.1665V5.50008ZM16.6665 18.8334H3.33317C2.4165 18.8334 1.6665 18.0834 1.6665 17.1667V16.3334H18.3332V17.1667C18.3332 18.0834 17.5832 18.8334 16.6665 18.8334ZM15.4415 8.99175C15.1748 8.39175 14.5748 8.00008 13.9165 8.00008H6.08317C5.42484 8.00008 4.82484 8.39175 4.55817 8.99175L1.6665 15.5001H18.3332L15.4415 8.99175ZM7.9165 13.8334H7.08317C6.84984 13.8334 6.6665 13.6501 6.6665 13.4167C6.6665 13.1834 6.84984 13.0001 7.08317 13.0001H7.9165C8.14984 13.0001 8.33317 13.1834 8.33317 13.4167C8.33317 13.6501 8.14984 13.8334 7.9165 13.8334ZM7.9165 12.1667H7.08317C6.84984 12.1667 6.6665 11.9834 6.6665 11.7501C6.6665 11.5167 6.84984 11.3334 7.08317 11.3334H7.9165C8.14984 11.3334 8.33317 11.5167 8.33317 11.7501C8.33317 11.9834 8.14984 12.1667 7.9165 12.1667ZM7.9165 10.5001H7.08317C6.84984 10.5001 6.6665 10.3167 6.6665 10.0834C6.6665 9.85008 6.84984 9.66675 7.08317 9.66675H7.9165C8.14984 9.66675 8.33317 9.85008 8.33317 10.0834C8.33317 10.3167 8.14984 10.5001 7.9165 10.5001ZM10.4165 13.8334H9.58317C9.34984 13.8334 9.1665 13.6501 9.1665 13.4167C9.1665 13.1834 9.34984 13.0001 9.58317 13.0001H10.4165C10.6498 13.0001 10.8332 13.1834 10.8332 13.4167C10.8332 13.6501 10.6498 13.8334 10.4165 13.8334ZM10.4165 12.1667H9.58317C9.34984 12.1667 9.1665 11.9834 9.1665 11.7501C9.1665 11.5167 9.34984 11.3334 9.58317 11.3334H10.4165C10.6498 11.3334 10.8332 11.5167 10.8332 11.7501C10.8332 11.9834 10.6498 12.1667 10.4165 12.1667ZM10.4165 10.5001H9.58317C9.34984 10.5001 9.1665 10.3167 9.1665 10.0834C9.1665 9.85008 9.34984 9.66675 9.58317 9.66675H10.4165C10.6498 9.66675 10.8332 9.85008 10.8332 10.0834C10.8332 10.3167 10.6498 10.5001 10.4165 10.5001ZM12.9165 13.8334H12.0832C11.8498 13.8334 11.6665 13.6501 11.6665 13.4167C11.6665 13.1834 11.8498 13.0001 12.0832 13.0001H12.9165C13.1498 13.0001 13.3332 13.1834 13.3332 13.4167C13.3332 13.6501 13.1498 13.8334 12.9165 13.8334ZM12.9165 12.1667H12.0832C11.8498 12.1667 11.6665 11.9834 11.6665 11.7501C11.6665 11.5167 11.8498 11.3334 12.0832 11.3334H12.9165C13.1498 11.3334 13.3332 11.5167 13.3332 11.7501C13.3332 11.9834 13.1498 12.1667 12.9165 12.1667ZM12.9165 10.5001H12.0832C11.8498 10.5001 11.6665 10.3167 11.6665 10.0834C11.6665 9.85008 11.8498 9.66675 12.0832 9.66675H12.9165C13.1498 9.66675 13.3332 9.85008 13.3332 10.0834C13.3332 10.3167 13.1498 10.5001 12.9165 10.5001Z" fill="currentColor"/>
</svg>
