<svg width="40" height="40" viewBox="0 0 40 40" fill="none" xmlns="http://www.w3.org/2000/svg">
<path d="M28.3285 21.6637H21.6637V28.3285C21.6637 28.682 21.5233 29.0211 21.2733 29.271C21.0233 29.521 20.6843 29.6615 20.3307 29.6615C19.9772 29.6615 19.6382 29.521 19.3882 29.271C19.1382 29.0211 18.9978 28.682 18.9978 28.3285V21.6637H12.333C11.9794 21.6637 11.6404 21.5233 11.3904 21.2733C11.1404 21.0233 11 20.6843 11 20.3307C11 19.9772 11.1404 19.6382 11.3904 19.3882C11.6404 19.1382 11.9794 18.9978 12.333 18.9978H18.9978V12.333C18.9978 11.9794 19.1382 11.6404 19.3882 11.3904C19.6382 11.1404 19.9772 11 20.3307 11C20.6843 11 21.0233 11.1404 21.2733 11.3904C21.5233 11.6404 21.6637 11.9794 21.6637 12.333V18.9978H28.3285C28.682 18.9978 29.0211 19.1382 29.271 19.3882C29.521 19.6382 29.6615 19.9772 29.6615 20.3307C29.6615 20.6843 29.521 21.0233 29.271 21.2733C29.0211 21.5233 28.682 21.6637 28.3285 21.6637Z" fill="currentColor"/>
</svg>
