<svg width="20" height="20" viewBox="0 0 20 20" fill="none" xmlns="http://www.w3.org/2000/svg">
<path d="M17.3333 2H2.66667C2.29867 2 2 2.29867 2 2.66667V6C2 6.368 2.29867 6.66667 2.66667 6.66667H9.5H10.5H17.3333C17.7013 6.66667 18 6.368 18 6V2.66667C18 2.29867 17.7013 2 17.3333 2Z" fill="#617D6D"/>
<path d="M2 8.33325V17.3333C2 17.7013 2.29867 17.9999 2.66667 17.9999H8.83333C9.20133 17.9999 9.5 17.7013 9.5 17.3333V8.33325C9.5 7.96525 9.20133 7.66659 8.83333 7.66659H2.66667C2.29867 7.66659 2 7.96525 2 8.33325Z" fill="#617D6D"/>
<path d="M11.1667 17.9999H17.3333C17.7013 17.9999 18 17.7012 18 17.3332V8.33321C18 7.96521 17.7013 7.66655 17.3333 7.66655H11.1667C10.7987 7.66655 10.5 7.96521 10.5 8.33321V17.3332C10.5 17.7012 10.7987 17.9999 11.1667 17.9999Z" fill="#617D6D"/>
</svg>
