<svg width="28" height="28" viewBox="0 0 28 28" fill="none" xmlns="http://www.w3.org/2000/svg">
<path d="M26.8333 0H1.16667C0.522667 0 0 0.522667 0 1.16667V7C0 7.644 0.522667 8.16667 1.16667 8.16667H13.125H14.875H26.8333C27.4773 8.16667 28 7.644 28 7V1.16667C28 0.522667 27.4773 0 26.8333 0Z" fill="currentColor"/>
<path d="M0 11.084V26.834C0 27.478 0.522667 28.0007 1.16667 28.0007H11.9583C12.6023 28.0007 13.125 27.478 13.125 26.834V11.084C13.125 10.44 12.6023 9.91733 11.9583 9.91733H1.16667C0.522667 9.91733 0 10.44 0 11.084Z" fill="currentColor"/>
<path d="M16.0417 28.0007H26.8333C27.4773 28.0007 28 27.478 28 26.834V11.084C28 10.44 27.4773 9.91733 26.8333 9.91733H16.0417C15.3977 9.91733 14.875 10.44 14.875 11.084V26.834C14.875 27.478 15.3977 28.0007 16.0417 28.0007Z" fill="currentColor"/>
</svg>
