<svg width="32" height="32" viewBox="0 0 32 32" fill="currentColor" xmlns="http://www.w3.org/2000/svg">
<rect width="32" height="32" rx="16" fill="currentColor"/>
<path d="M15.9998 9.96337L15.4146 9.37817L15.9998 8.79297L16.585 9.37817L15.9998 9.96337ZM16.8275 22.3792C16.8275 22.5988 16.7403 22.8093 16.5851 22.9645C16.4299 23.1198 16.2193 23.207 15.9998 23.207C15.7803 23.207 15.5697 23.1198 15.4145 22.9645C15.2593 22.8093 15.1721 22.5988 15.1721 22.3792H16.8275ZM10.4482 14.3445L15.4146 9.37817L16.585 10.5486L11.6186 15.5149L10.4482 14.3445ZM16.585 9.37817L21.5513 14.3445L20.3809 15.5149L15.4146 10.5486L16.585 9.37817ZM16.8275 9.96337V22.3792H15.1721V9.96337H16.8275Z" fill="white"/>
</svg>
