<svg width="12" height="12" viewBox="0 0 12 12" fill="none" xmlns="http://www.w3.org/2000/svg">
<path d="M4.6722 1.62505C4.6722 1.37652 4.87368 1.17505 5.1222 1.17505H6.8709C7.11943 1.17505 7.3209 1.37652 7.3209 1.62505C7.3209 1.87358 7.11943 2.07505 6.8709 2.07505H5.1222C4.87368 2.07505 4.6722 1.87358 4.6722 1.62505Z" fill="#919191"/>
<path d="M3.8233 1.6179C3.83082 1.86631 3.63555 2.07379 3.38713 2.08132C2.95874 2.0943 2.78027 2.12824 2.65315 2.19362L2.6486 2.19596C2.45566 2.29243 2.29516 2.45345 2.18626 2.66112C2.1213 2.78817 2.08754 2.96686 2.0746 3.39386C2.06707 3.64227 1.85959 3.83755 1.61118 3.83002C1.36276 3.8225 1.16749 3.61501 1.17502 3.3666C1.18794 2.94008 1.21877 2.5745 1.38655 2.24826L1.38791 2.2456C1.57656 1.88471 1.86837 1.58044 2.24387 1.39207C2.56952 1.22534 2.93437 1.19463 3.35987 1.18173C3.60829 1.1742 3.81577 1.36948 3.8233 1.6179Z" fill="#919191"/>
<path d="M8.16981 1.6179C8.17733 1.36948 8.38482 1.1742 8.63323 1.18173C9.05873 1.19463 9.42358 1.22534 9.74923 1.39207C10.1247 1.58044 10.4165 1.88471 10.6052 2.2456L10.6066 2.24825C10.7743 2.57449 10.8052 2.94008 10.8181 3.3666C10.8256 3.61501 10.6303 3.8225 10.3819 3.83002C10.1335 3.83755 9.92603 3.64227 9.9185 3.39386C9.90557 2.96686 9.8718 2.78817 9.80684 2.66112C9.69795 2.45346 9.53745 2.2924 9.34451 2.19593L9.33994 2.19365C9.21281 2.12827 9.03437 2.0943 8.60597 2.08132C8.35756 2.07379 8.16228 1.86631 8.16981 1.6179Z" fill="#919191"/>
<path d="M1.62481 4.67246C1.87333 4.67246 2.07481 4.87393 2.07481 5.12246V6.87116C2.07481 7.11969 1.87333 7.32116 1.62481 7.32116C1.37628 7.32116 1.17481 7.11969 1.17481 6.87116V5.12246C1.17481 4.87393 1.37628 4.67246 1.62481 4.67246Z" fill="#919191"/>
<path d="M10.3683 4.67246C10.6168 4.67246 10.8183 4.87393 10.8183 5.12246V6.87116C10.8183 7.11969 10.6168 7.32116 10.3683 7.32116C10.1198 7.32116 9.9183 7.11969 9.9183 6.87116V5.12246C9.9183 4.87393 10.1198 4.67246 10.3683 4.67246Z" fill="#919191"/>
<path d="M10.3884 8.17007C10.6368 8.1776 10.8321 8.38508 10.8246 8.6335C10.8116 9.06002 10.7808 9.4256 10.613 9.75184L10.6117 9.7545C10.423 10.1154 10.1312 10.4197 9.75563 10.6081C9.43 10.7748 9.06517 10.8055 8.63971 10.8184C8.39129 10.8259 8.18381 10.6306 8.17628 10.3822C8.16876 10.1338 8.36403 9.92631 8.61245 9.91878C9.04084 9.9058 9.2193 9.87185 9.34643 9.80647L9.35098 9.80414C9.54392 9.70767 9.70442 9.54664 9.81332 9.33897C9.87828 9.21193 9.91204 9.03323 9.92498 8.60624C9.93251 8.35782 10.14 8.16255 10.3884 8.17007Z" fill="#919191"/>
<path d="M1.61118 8.17655C1.85959 8.16902 2.06707 8.3643 2.0746 8.61271C2.08758 9.04111 2.12152 9.21958 2.1869 9.3467L2.18924 9.35125C2.28571 9.54419 2.44673 9.7047 2.6544 9.81359C2.78145 9.87855 2.96014 9.91232 3.38713 9.92525C3.63555 9.93278 3.83082 10.1403 3.8233 10.3887C3.81577 10.6371 3.60829 10.8324 3.35987 10.8248C2.93336 10.8119 2.56778 10.7811 2.24154 10.6133L2.23888 10.6119C1.87799 10.4233 1.57372 10.1315 1.38535 9.75598C1.21862 9.43033 1.18791 9.06548 1.17502 8.63997C1.16749 8.39156 1.36276 8.18408 1.61118 8.17655Z" fill="#919191"/>
<path d="M4.6722 10.3686C4.6722 10.12 4.87368 9.91857 5.1222 9.91857H6.8709C7.11943 9.91857 7.3209 10.12 7.3209 10.3686C7.3209 10.6171 7.11943 10.8186 6.8709 10.8186H5.1222C4.87368 10.8186 4.6722 10.6171 4.6722 10.3686Z" fill="#919191"/>
</svg>
