<svg width="16" height="16" viewBox="0 0 16 16" fill="none" xmlns="http://www.w3.org/2000/svg">
<path d="M7.25547 3.11512C7.25547 2.36122 7.86655 1.75014 8.62046 1.75014C9.37436 1.75014 9.98545 2.36122 9.98545 3.11512C9.98545 3.86903 9.37436 4.48011 8.62046 4.48011C7.86655 4.48011 7.25547 3.86903 7.25547 3.11512ZM12.1388 7.91443C11.516 7.87879 10.9098 7.66882 10.3812 7.30237C9.78696 6.89075 9.33652 6.31458 9.07554 5.63929C8.78306 4.90858 8.01133 4.50721 7.26231 4.7201C7.19419 4.73914 7.12388 4.76185 7.05161 4.78724C7.02818 4.79456 7.00498 4.80262 6.98203 4.81214C6.85191 4.86024 6.71543 4.91785 6.5731 4.9845C5.92784 5.25501 5.26158 5.52625 4.58018 5.79774C4.13097 5.97718 3.79332 6.38147 3.74645 6.82874C3.68859 7.39002 3.64903 7.95276 3.62853 8.51599C3.62487 8.61755 3.71373 8.69983 3.82604 8.69983H4.79649C4.90904 8.69983 4.99937 8.61731 5.00426 8.51599C5.02916 8.00378 5.07628 7.46619 5.14635 6.97815C5.14928 6.9574 5.16221 6.9386 5.18346 6.93006C5.57799 6.77381 5.96934 6.61756 6.35606 6.46155C6.39854 6.44446 6.442 6.47815 6.43126 6.5199C5.78502 9.01941 5.16514 11.5511 4.99791 14.0326C4.99058 14.1451 5.09264 14.2499 5.20787 14.2499H6.1649C6.25206 14.2499 6.32212 14.1888 6.33287 14.1041C6.49302 12.8392 6.73912 11.5609 7.01499 10.2804C7.02354 10.2406 7.07701 10.2242 7.11094 10.2513C7.51133 10.5721 7.91001 10.8927 8.30259 11.213C8.3148 11.223 8.32188 11.2372 8.32163 11.2523C8.3165 12.1952 8.30747 13.1351 8.29453 14.0682C8.29331 14.1686 8.37412 14.2499 8.47495 14.2499H9.41318C9.51401 14.2499 9.60239 14.1686 9.6102 14.0682C9.68051 13.1276 9.7291 12.1796 9.7562 11.2289C9.76718 10.8563 9.59726 10.5001 9.29111 10.2518C9.01426 10.0272 8.73545 9.80285 8.45591 9.57824C8.58384 9.00647 8.70981 8.43469 8.8292 7.86389C8.83799 7.8219 8.89536 7.80701 8.92783 7.8385C9.11265 8.01746 9.31308 8.18298 9.52768 8.33313C10.3075 8.87805 11.2137 9.18469 12.1593 9.22497C12.2762 9.22986 12.3736 9.1466 12.3719 9.04114C12.3668 8.72644 12.3558 8.41199 12.3392 8.09778C12.3341 8.00061 12.2459 7.92078 12.139 7.91467L12.1388 7.91443Z" fill="currentColor"/>
</svg>
