<svg width="122" height="77" viewBox="0 0 122 77" fill="none" xmlns="http://www.w3.org/2000/svg">
<path d="M65.3403 0.469661C49.5142 0.961724 44.6279 18.7447 53.8397 23.917C53.2676 24.0887 50.7615 24.7867 48.9878 24.7982C47.8778 24.7982 46.7563 24.7638 45.6463 24.5808C45.0742 24.4778 43.2089 23.7912 43.3691 25.1071C43.7238 28.1854 46.0468 36.7908 56.6662 36.4589C72.4924 35.9669 77.3787 18.1839 68.1668 13.0115C68.7389 12.8399 71.245 12.1419 73.0187 12.1304C74.678 12.1304 76.5891 12.2792 77.5732 12.6454C78.0424 12.817 78.6946 12.3364 78.6374 11.8214C78.2827 8.74319 75.9597 0.149248 65.3403 0.469661ZM65.7408 23.6653C64.9855 26.7779 61.667 29.3526 58.4056 29.3526C54.1716 29.3526 52.8785 25.0385 54.183 24.0887C55.4189 24.7181 56.8722 25.1415 58.5887 25.2674C59.1266 25.3131 59.5843 24.9241 59.7216 24.3862L60.9918 19.3512C61.1406 18.7675 61.1749 18.2297 61.873 18.0924C62.2735 18.0123 62.7083 18.0924 63.0974 18.2297C64.1158 18.5959 64.9741 19.4084 65.4433 20.3696C65.9468 21.3881 66.0154 22.5553 65.7408 23.6538V23.6653ZM67.812 12.8399C66.5762 12.2105 65.1229 11.7871 63.4064 11.6612C62.8685 11.6155 62.4108 12.0045 62.2735 12.5424L61.0033 17.5774C60.8659 18.1267 60.8431 18.6646 60.2022 18.8133C59.8246 18.9049 59.4126 18.8476 59.0465 18.7332C58.0623 18.4357 57.227 17.7033 56.712 16.8336C56.0712 15.7579 55.9682 14.4763 56.2657 13.2633C57.021 10.1507 60.3395 7.57597 63.6009 7.57597C67.8349 7.57597 69.128 11.8901 67.8235 12.8399H67.812Z" fill="url(#paint0_radial_3496_150422)"/>
<path d="M6.33208 75.2216C4.18492 74.3599 2.37679 73.1168 0.893555 71.4782C1.69874 71.1816 2.58868 70.8284 3.50687 70.3622C5.14549 69.5429 6.47334 68.6106 7.53279 67.7489C9.27029 68.6954 9.36917 68.7378 9.36917 68.7378C10.584 69.2322 11.9401 69.4864 13.4657 69.4864C14.9913 69.4864 16.2627 69.218 17.1102 68.6812C17.9578 68.1445 18.3957 67.4099 18.3957 66.4635C18.3957 65.9125 18.2544 65.4746 17.9719 65.0932C17.6894 64.7118 17.1809 64.3869 16.5028 64.1044C15.8248 63.8219 14.8077 63.5253 13.5222 63.2427L11.9825 62.8472C8.63462 62.042 6.13431 60.8696 4.46744 59.344C2.80057 57.8183 1.93888 55.9113 1.93888 53.6512C1.93888 51.7583 2.4898 50.049 3.59163 48.5234C4.69345 46.9978 6.19082 45.8112 8.09783 44.9495C10.0048 44.0878 12.1237 43.6641 14.4545 43.6641C16.6441 43.6641 18.7206 44.0596 20.7124 44.8648C22.7041 45.67 24.4981 46.8283 26.1226 48.3256C25.1338 48.7777 23.9755 49.371 22.7606 50.2468C21.7012 50.9955 20.8395 51.7583 20.1473 52.4504C20.0484 52.3798 19.9072 52.2809 19.7235 52.1538C19.0455 51.73 18.4381 51.5181 18.1414 51.3769C17.0113 50.8825 15.7683 50.6423 14.4404 50.6423C13.1126 50.6423 11.9684 50.8825 11.1491 51.3769C10.3297 51.8713 9.92008 52.5493 9.92008 53.3828C9.92008 53.7783 10.0331 54.1173 10.3015 54.414C10.5699 54.7106 10.9513 54.9508 11.5163 55.1909C12.0814 55.431 12.8583 55.6712 13.8471 55.9255L15.4716 56.3492C19.2433 57.2392 22.0261 58.4823 23.7918 60.0785C25.5576 61.6747 26.4475 63.723 26.4475 66.1951C26.4475 68.1868 25.8966 69.9526 24.8089 71.5206C23.7212 73.0886 22.1815 74.3034 20.218 75.1792C18.2544 76.055 15.966 76.4788 13.3951 76.4788C10.8242 76.4788 8.54986 76.055 6.40271 75.1792L6.33208 75.2075V75.2216Z" fill="#002113"/>
<path d="M33.6944 75.2216C31.5472 74.3599 29.7391 73.1168 28.2559 71.4782C29.061 71.1816 29.951 70.8284 30.8692 70.3622C32.5078 69.5429 33.8356 68.6106 34.8951 67.7489C36.6326 68.6954 36.7315 68.7378 36.7315 68.7378C37.9463 69.2322 39.3024 69.4864 40.828 69.4864C42.3536 69.4864 43.625 69.218 44.4725 68.6812C45.3201 68.1445 45.758 67.4099 45.758 66.4635C45.758 65.9125 45.6167 65.4746 45.3342 65.0932C45.0517 64.7118 44.5432 64.3869 43.8651 64.1044C43.1871 63.8219 42.17 63.5253 40.8845 63.2427L39.3448 62.8472C35.9969 62.042 33.4966 60.8696 31.8297 59.344C30.1629 57.8183 29.3012 55.9113 29.3012 53.6512C29.3012 51.7583 29.8521 50.049 30.9539 48.5234C32.0558 46.9978 33.5531 45.8112 35.4601 44.9495C37.3671 44.0878 39.4861 43.6641 41.8168 43.6641C44.0064 43.6641 46.0829 44.0596 48.0747 44.8648C50.0664 45.67 51.8604 46.8283 53.4849 48.3256C52.4961 48.7777 51.3378 49.371 50.1229 50.2468C49.0635 50.9955 48.2018 51.7583 47.5096 52.4504C47.4108 52.3798 47.2695 52.2809 47.0859 52.1538C46.4078 51.73 45.8004 51.5181 45.5037 51.3769C44.3737 50.8825 43.1306 50.6423 41.8027 50.6423C40.4749 50.6423 39.3307 50.8825 38.5114 51.3769C37.692 51.8713 37.2824 52.5493 37.2824 53.3828C37.2824 53.7783 37.3954 54.1173 37.6638 54.414C37.9322 54.7106 38.3136 54.9508 38.8786 55.1909C39.4437 55.431 40.2206 55.6712 41.2094 55.9255L42.8339 56.3492C46.6056 57.2392 49.3884 58.4823 51.1541 60.0785C52.9199 61.6747 53.8098 63.723 53.8098 66.1951C53.8098 68.1868 53.2589 69.9526 52.1712 71.5206C51.0835 73.0886 49.5438 74.3034 47.5803 75.1792C45.6167 76.055 43.3283 76.4788 40.7574 76.4788C38.1865 76.4788 35.9122 76.055 33.765 75.1792L33.6944 75.2075V75.2216Z" fill="#002113"/>
<path d="M64.4322 74.3897C61.9461 72.9629 59.9825 70.9853 58.5417 68.4709C57.1008 65.9564 56.3945 63.1736 56.3945 60.1083C56.3945 57.0429 57.115 54.2177 58.5417 51.7174C59.9684 49.2171 61.9319 47.2536 64.4322 45.8268C66.9325 44.4001 69.6871 43.6797 72.7242 43.6797C75.7613 43.6797 78.5724 44.4001 81.0586 45.8268C83.5448 47.2536 85.4941 49.203 86.9067 51.7174C88.3194 54.2318 89.0398 57.0005 89.0398 60.1083C89.0398 63.216 88.3194 65.9423 86.9067 68.4709C85.4941 70.9994 83.5448 72.9488 81.0586 74.3897C78.5724 75.8305 75.8037 76.5368 72.7242 76.5368C69.6447 76.5368 66.9325 75.8164 64.4322 74.3897ZM76.9055 67.5809C78.1486 66.8464 79.1092 65.8293 79.7872 64.5297C80.4653 63.2301 80.8043 61.761 80.8043 60.0941C80.8043 58.4273 80.4653 56.9299 79.7872 55.6444C79.1092 54.359 78.1486 53.3419 76.9055 52.6073C75.6624 51.8728 74.264 51.5196 72.7101 51.5196C71.1562 51.5196 69.7578 51.8869 68.5429 52.6073C67.3281 53.3278 66.3534 54.3448 65.6612 55.6444C64.969 56.944 64.6018 58.4273 64.6018 60.0941C64.6018 61.761 64.9549 63.216 65.6612 64.5297C66.3675 65.8434 67.314 66.8464 68.5429 67.5809C69.7719 68.3155 71.1562 68.6828 72.7101 68.6828C74.264 68.6828 75.6624 68.3155 76.9055 67.5809Z" fill="#002113"/>
<path d="M114.862 66.636C112.744 63.9238 110.653 61.5365 108.633 59.4458C109.339 58.4005 110.06 57.341 110.837 56.2675C114.071 51.7895 117.448 47.8907 120.781 44.5287H110.738C108.774 46.351 106.613 48.6112 104.466 51.3375C103.406 52.6795 102.474 53.979 101.641 55.2504C101.612 52.3122 101.655 49.3175 101.824 46.1815C102.078 41.1244 102.587 36.3639 103.251 31.9707H92.501C93.2073 38.2144 93.7017 45.1503 93.7299 52.6936C93.7864 61.1268 93.2638 68.8255 92.501 75.6625H103.251C102.643 71.6083 102.163 67.1869 101.867 62.4264C103.237 63.9096 104.649 65.5483 106.048 67.427C108.251 70.3652 109.975 73.1763 111.303 75.6625H121.106C119.383 72.8514 117.32 69.7719 114.862 66.6218V66.636Z" fill="#002113"/>
<defs>
<radialGradient id="paint0_radial_3496_150422" cx="0" cy="0" r="1" gradientUnits="userSpaceOnUse" gradientTransform="translate(61.0002 18.4646) rotate(90) scale(18.0037 17.6408)">
<stop stop-color="#00A570"/>
<stop offset="1" stop-color="#27C287"/>
</radialGradient>
</defs>
</svg>
