<svg width="48" height="48" viewBox="0 0 48 48" fill="none" xmlns="http://www.w3.org/2000/svg">
<path d="M29.0393 3.10876C10.6659 3.68002 4.99316 24.3251 15.6877 30.33C15.0234 30.5293 12.114 31.3397 10.0548 31.353C8.76614 31.353 7.46419 31.3131 6.17553 31.1006C5.51128 30.981 3.3458 30.1839 3.53179 31.7117C3.94363 35.2854 6.64052 45.2758 18.9691 44.8905C37.3425 44.3193 43.0152 23.6742 32.3207 17.6693C32.9849 17.47 35.8944 16.6596 37.9536 16.6463C39.8799 16.6463 42.0986 16.819 43.2411 17.2442C43.7858 17.4434 44.543 16.8855 44.4766 16.2876C44.0648 12.7139 41.3679 2.73678 29.0393 3.10876ZM29.5042 30.0377C28.6274 33.6513 24.7747 36.6405 20.9885 36.6405C16.073 36.6405 14.5717 31.632 16.0862 30.5293C17.521 31.26 19.2083 31.7515 21.201 31.8977C21.8254 31.9508 22.3568 31.4991 22.5163 30.8747L23.9909 25.0292C24.1636 24.3517 24.2035 23.7273 25.0139 23.5679C25.4788 23.4749 25.9837 23.5679 26.4354 23.7273C27.6178 24.1524 28.6141 25.0957 29.1588 26.2116C29.7434 27.394 29.8231 28.7491 29.5042 30.0245V30.0377ZM31.9089 17.47C30.4741 16.7393 28.7868 16.2478 26.7941 16.1016C26.1697 16.0485 25.6383 16.5002 25.4788 17.1246L24.0042 22.97C23.8448 23.6077 23.8182 24.2321 23.0742 24.4048C22.6358 24.5111 22.1576 24.4447 21.7324 24.3118C20.5899 23.9664 19.6201 23.1162 19.0223 22.1065C18.2783 20.8577 18.1587 19.3698 18.5041 17.9615C19.381 14.348 23.2337 11.3588 27.0199 11.3588C31.9354 11.3588 33.4366 16.3673 31.9221 17.47H31.9089Z" fill="url(#paint0_radial_3488_96805)"/>
<defs>
<radialGradient id="paint0_radial_3488_96805" cx="0" cy="0" r="1" gradientUnits="userSpaceOnUse" gradientTransform="translate(24.0006 24) rotate(90) scale(20.9014 20.4801)">
<stop stop-color="#00A570"/>
<stop offset="1" stop-color="#27C287"/>
</radialGradient>
</defs>
</svg>
