<svg width="48" height="48" viewBox="0 0 48 48" fill="none" xmlns="http://www.w3.org/2000/svg">
<path d="M29.363 1.76078C9.80524 2.36887 3.7668 24.3448 15.1508 30.7368C14.4437 30.949 11.3467 31.8116 9.15473 31.8257C7.783 31.8257 6.39713 31.7833 5.0254 31.557C4.31832 31.4298 2.01325 30.5813 2.21123 32.2076C2.64962 36.0116 5.52036 46.6461 18.6437 46.236C38.2015 45.6279 44.2399 23.6519 32.856 17.2599C33.5631 17.0478 36.6601 16.1852 38.852 16.171C40.9025 16.171 43.2642 16.3549 44.4803 16.8074C45.0601 17.0195 45.8662 16.4256 45.7955 15.7892C45.3571 11.9851 42.4864 1.36482 29.363 1.76078ZM29.858 30.4257C28.9246 34.2722 24.8236 37.4541 20.7932 37.4541C15.5609 37.4541 13.9629 32.1227 15.575 30.949C17.1023 31.7267 18.8983 32.25 21.0195 32.4055C21.6842 32.4621 22.2498 31.9813 22.4195 31.3166L23.9892 25.0943C24.1731 24.3731 24.2155 23.7085 25.0781 23.5388C25.5731 23.4398 26.1105 23.5388 26.5913 23.7085C27.8499 24.161 28.9105 25.1651 29.4903 26.3529C30.1125 27.6115 30.1974 29.054 29.858 30.4116V30.4257ZM32.4176 17.0478C30.8903 16.27 29.0943 15.7468 26.9731 15.5912C26.3084 15.5347 25.7428 16.0155 25.5731 16.6801L24.0034 22.9024C23.8337 23.5812 23.8054 24.2459 23.0135 24.4297C22.5468 24.5428 22.0377 24.4721 21.5852 24.3307C20.369 23.963 19.3367 23.058 18.7003 21.9832C17.9084 20.6539 17.7811 19.07 18.1488 17.571C19.0821 13.7245 23.1832 10.5427 27.2135 10.5427C32.4459 10.5427 34.0439 15.8741 32.4317 17.0478H32.4176Z" fill="url(#paint0_radial_3503_208049)"/>
<defs>
<radialGradient id="paint0_radial_3503_208049" cx="0" cy="0" r="1" gradientUnits="userSpaceOnUse" gradientTransform="translate(23.9995 23.9988) rotate(90) scale(22.2488 21.8003)">
<stop stop-color="#00A570"/>
<stop offset="1" stop-color="#27C287"/>
</radialGradient>
</defs>
</svg>
