<svg viewBox="0 0 90 24" fill="none" xmlns="http://www.w3.org/2000/svg">
<path d="M28.2405 23.2784C27.085 22.8147 26.1119 22.1457 25.3137 21.2639C25.747 21.1042 26.226 20.9142 26.7201 20.6633C27.602 20.2224 28.3166 19.7207 28.8867 19.2569C29.8218 19.7663 29.875 19.7891 29.875 19.7891C30.5288 20.0552 31.2586 20.192 32.0796 20.192C32.9006 20.192 33.5848 20.0476 34.0409 19.7587C34.497 19.4698 34.7327 19.0745 34.7327 18.5652C34.7327 18.2687 34.6567 18.033 34.5046 17.8278C34.3526 17.6225 34.0789 17.4476 33.714 17.2956C33.3491 17.1436 32.8018 16.9839 32.11 16.8319L31.2814 16.619C29.4797 16.1857 28.1341 15.5547 27.2371 14.7337C26.34 13.9127 25.8763 12.8864 25.8763 11.6701C25.8763 10.6514 26.1728 9.73154 26.7657 8.91051C27.3587 8.08949 28.1645 7.45091 29.1908 6.98719C30.2171 6.52346 31.3574 6.2954 32.6117 6.2954C33.79 6.2954 34.9076 6.50826 35.9794 6.94158C37.0513 7.37489 38.0168 7.99826 38.891 8.80408C38.3589 9.04735 37.7355 9.36664 37.0817 9.83797C36.5116 10.2409 36.0479 10.6514 35.6754 11.0239C35.6222 10.9859 35.5461 10.9327 35.4473 10.8642C35.0824 10.6362 34.7555 10.5222 34.5959 10.4461C33.9877 10.1801 33.3187 10.0508 32.6041 10.0508C31.8895 10.0508 31.2738 10.1801 30.8328 10.4461C30.3919 10.7122 30.1715 11.0771 30.1715 11.5256C30.1715 11.7385 30.2323 11.9209 30.3767 12.0806C30.5212 12.2402 30.7264 12.3695 31.0305 12.4987C31.3346 12.6279 31.7527 12.7572 32.2848 12.894L33.1591 13.1221C35.1888 13.601 36.6864 14.27 37.6367 15.129C38.587 15.988 39.0659 17.0903 39.0659 18.4207C39.0659 19.4926 38.7694 20.4429 38.184 21.2867C37.5987 22.1305 36.7701 22.7843 35.7134 23.2556C34.6567 23.727 33.4251 23.955 32.0416 23.955C30.658 23.955 29.4341 23.727 28.2785 23.2556L28.2405 23.2708V23.2784Z" fill="#1E1E1E"/>
<path d="M42.9654 23.2784C41.8099 22.8147 40.8369 22.1457 40.0386 21.2639C40.472 21.1042 40.9509 20.9142 41.445 20.6633C42.3269 20.2224 43.0415 19.7207 43.6116 19.2569C44.5467 19.7663 44.5999 19.7891 44.5999 19.7891C45.2537 20.0552 45.9835 20.192 46.8045 20.192C47.6255 20.192 48.3097 20.0476 48.7658 19.7587C49.222 19.4698 49.4576 19.0745 49.4576 18.5652C49.4576 18.2687 49.3816 18.033 49.2296 17.8278C49.0775 17.6225 48.8038 17.4476 48.4389 17.2956C48.074 17.1436 47.5267 16.9839 46.8349 16.8319L46.0063 16.619C44.2046 16.1857 42.859 15.5547 41.962 14.7337C41.0649 13.9127 40.6012 12.8864 40.6012 11.6701C40.6012 10.6514 40.8977 9.73154 41.4906 8.91051C42.0836 8.08949 42.8894 7.45091 43.9157 6.98719C44.942 6.52346 46.0823 6.2954 47.3366 6.2954C48.515 6.2954 49.6325 6.50826 50.7044 6.94158C51.7763 7.37489 52.7417 7.99826 53.616 8.80408C53.0838 9.04735 52.4604 9.36664 51.8067 9.83797C51.2365 10.2409 50.7728 10.6514 50.4003 11.0239C50.3471 10.9859 50.271 10.9327 50.1722 10.8642C49.8073 10.6362 49.4804 10.5222 49.3208 10.4461C48.7126 10.1801 48.0436 10.0508 47.329 10.0508C46.6144 10.0508 45.9987 10.1801 45.5578 10.4461C45.1168 10.7122 44.8964 11.0771 44.8964 11.5256C44.8964 11.7385 44.9572 11.9209 45.1016 12.0806C45.2461 12.2402 45.4513 12.3695 45.7554 12.4987C46.0595 12.6279 46.4776 12.7572 47.0097 12.894L47.884 13.1221C49.9137 13.601 51.4114 14.27 52.3616 15.129C53.3119 15.988 53.7908 17.0903 53.7908 18.4207C53.7908 19.4926 53.4943 20.4429 52.909 21.2867C52.3236 22.1305 51.495 22.7843 50.4383 23.2556C49.3816 23.727 48.1501 23.955 46.7665 23.955C45.3829 23.955 44.159 23.727 43.0035 23.2556L42.9654 23.2708V23.2784Z" fill="#1E1E1E"/>
<path d="M59.4998 22.8223C58.1618 22.0545 57.1052 20.9902 56.3297 19.637C55.5543 18.2839 55.1742 16.7863 55.1742 15.1366C55.1742 13.487 55.5619 11.9665 56.3297 10.621C57.0975 9.27541 58.1542 8.21872 59.4998 7.45091C60.8454 6.6831 62.3278 6.2954 63.9622 6.2954C65.5967 6.2954 67.1095 6.6831 68.4474 7.45091C69.7854 8.21872 70.8345 9.26781 71.5947 10.621C72.3549 11.9741 72.7426 13.4642 72.7426 15.1366C72.7426 16.8091 72.3549 18.2763 71.5947 19.637C70.8345 20.9978 69.7854 22.0469 68.4474 22.8223C67.1095 23.5977 65.6195 23.9778 63.9622 23.9778C62.305 23.9778 60.8454 23.5901 59.4998 22.8223ZM66.22 19.1657C66.889 18.7704 67.406 18.2231 67.7709 17.5237C68.1358 16.8243 68.3182 16.0337 68.3182 15.1366C68.3182 14.2396 68.1358 13.4337 67.7709 12.742C67.406 12.0502 66.889 11.5028 66.22 11.1075C65.5511 10.7122 64.7985 10.5222 63.9622 10.5222C63.126 10.5222 62.3734 10.7198 61.7196 11.1075C61.0658 11.4952 60.5413 12.0426 60.1688 12.742C59.7963 13.4414 59.5986 14.2396 59.5986 15.1366C59.5986 16.0337 59.7887 16.8167 60.1688 17.5237C60.5489 18.2307 61.0582 18.7704 61.7196 19.1657C62.381 19.561 63.126 19.7587 63.9622 19.7587C64.7985 19.7587 65.5511 19.561 66.22 19.1657Z" fill="#1E1E1E"/>
<path d="M86.6391 18.6555C85.4988 17.1959 84.3737 15.9112 83.2866 14.786C83.6667 14.2235 84.0544 13.6533 84.4726 13.0756C86.2134 10.6657 88.0303 8.56754 89.8244 6.75825H84.4193C83.3627 7.73892 82.1995 8.95525 81.044 10.4224C80.4739 11.1446 79.9721 11.844 79.5236 12.5282C79.5084 10.947 79.5312 9.33535 79.6224 7.64769C79.7593 4.92614 80.0329 2.36425 80.3902 0H74.6051C74.9852 3.36012 75.2512 7.09274 75.2664 11.1522C75.2968 15.6907 75.0156 19.8338 74.6051 23.5132H80.3902C80.0633 21.3314 79.8049 18.952 79.6452 16.3901C80.3826 17.1883 81.1428 18.0701 81.8954 19.0812C83.0814 20.6624 84.0088 22.1753 84.7234 23.5132H89.9993C89.0718 22.0004 87.9619 20.3432 86.6391 18.6479V18.6555Z" fill="#1E1E1E"/>
<path d="M14.6024 0.0388689C4.08877 0.365758 0.842683 12.1794 6.96236 15.6155C6.58225 15.7296 4.9174 16.1933 3.73908 16.2009C3.00168 16.2009 2.25667 16.1781 1.51927 16.0564C1.13917 15.988 -0.099972 15.5319 0.00645706 16.4061C0.242121 18.4511 1.78534 24.1679 8.84007 23.9474C19.3537 23.6205 22.5998 11.8069 16.4802 8.37075C16.8603 8.25671 18.5251 7.79299 19.7034 7.78539C20.8057 7.78539 22.0753 7.88421 22.7291 8.12748C23.0408 8.24151 23.4741 7.92222 23.4361 7.58013C23.2004 5.53517 21.6572 -0.181591 14.6024 0.0388689ZM14.8685 15.4483C14.3668 17.516 12.1622 19.2265 9.99559 19.2265C7.18282 19.2265 6.32378 16.3605 7.19042 15.7296C8.01144 16.1477 8.97691 16.4289 10.1172 16.5126C10.4745 16.543 10.7786 16.2845 10.8698 15.9272L11.7137 12.5823C11.8125 12.1946 11.8353 11.8373 12.299 11.7461C12.5651 11.6929 12.854 11.7461 13.1124 11.8373C13.789 12.0806 14.3592 12.6203 14.6709 13.2589C15.0054 13.9355 15.051 14.7109 14.8685 15.4407V15.4483ZM16.2445 8.25672C15.4235 7.8386 14.458 7.55732 13.3177 7.4737C12.9604 7.44329 12.6563 7.70176 12.5651 8.05906L11.7213 11.404C11.63 11.7689 11.6148 12.1262 11.1891 12.225C10.9382 12.2858 10.6646 12.2478 10.4213 12.1718C9.76752 11.9741 9.21257 11.4876 8.87048 10.9098C8.44476 10.1952 8.37635 9.34381 8.574 8.53799C9.07574 6.47023 11.2803 4.75976 13.4469 4.75976C16.2597 4.75976 17.1187 7.62574 16.2521 8.25672H16.2445Z" fill="#1DAC78"/>
</svg>
