<svg viewBox="0 0 80 32" fill="none" xmlns="http://www.w3.org/2000/svg">
<path d="M3.60109 28.6418C2.17936 28.0712 0.982115 27.2481 0 26.1631C0.533148 25.9667 1.12242 25.7328 1.7304 25.4242C2.8154 24.8817 3.69462 24.2643 4.39613 23.6938C5.54661 24.3205 5.61209 24.3485 5.61209 24.3485C6.41648 24.6759 7.31442 24.8442 8.3246 24.8442C9.33477 24.8442 10.1766 24.6665 10.7378 24.3111C11.299 23.9557 11.589 23.4693 11.589 22.8426C11.589 22.4778 11.4954 22.1879 11.3084 21.9353C11.1213 21.6828 10.7846 21.4676 10.3356 21.2806C9.88662 21.0935 9.21318 20.8971 8.36201 20.71L7.34248 20.4481C5.12571 19.915 3.47014 19.1386 2.36643 18.1285C1.26272 17.1183 0.692159 15.8556 0.692159 14.359C0.692159 13.1056 1.05694 11.9739 1.78651 10.9637C2.51608 9.95351 3.50756 9.16782 4.77028 8.59726C6.03299 8.0267 7.43602 7.74609 8.97934 7.74609C10.4291 7.74609 11.8041 8.00799 13.1229 8.54114C14.4418 9.07429 15.6297 9.84127 16.7053 10.8327C16.0506 11.1321 15.2836 11.5249 14.4792 12.1048C13.7777 12.6005 13.2071 13.1056 12.7488 13.564C12.6833 13.5172 12.5898 13.4517 12.4682 13.3675C12.0192 13.0869 11.617 12.9466 11.4206 12.8531C10.6723 12.5257 9.84921 12.3667 8.96998 12.3667C8.09076 12.3667 7.33313 12.5257 6.79063 12.8531C6.24812 13.1805 5.97687 13.6294 5.97687 14.1813C5.97687 14.4432 6.0517 14.6677 6.22941 14.8641C6.40713 15.0605 6.65968 15.2195 7.03381 15.3785C7.40795 15.5375 7.9224 15.6965 8.57714 15.8649L9.65279 16.1455C12.1502 16.7348 13.9928 17.5579 15.162 18.6148C16.3312 19.6718 16.9204 21.028 16.9204 22.6649C16.9204 23.9837 16.5557 25.1529 15.8354 26.1911C15.1152 27.2294 14.0957 28.0338 12.7956 28.6137C11.4954 29.1936 9.98016 29.4742 8.27783 29.4742C6.5755 29.4742 5.06959 29.1936 3.64786 28.6137L3.60109 28.6324V28.6418Z" fill="#313131"/>
<path d="M21.7183 28.6418C20.2965 28.0712 19.0993 27.2481 18.1172 26.1631C18.6503 25.9667 19.2396 25.7328 19.8476 25.4242C20.9326 24.8817 21.8118 24.2643 22.5133 23.6938C23.6638 24.3205 23.7293 24.3485 23.7293 24.3485C24.5337 24.6759 25.4316 24.8442 26.4418 24.8442C27.452 24.8442 28.2938 24.6665 28.855 24.3111C29.4162 23.9557 29.7061 23.4693 29.7061 22.8426C29.7061 22.4778 29.6126 22.1879 29.4255 21.9353C29.2385 21.6828 28.9017 21.4676 28.4528 21.2806C28.0038 21.0935 27.3304 20.8971 26.4792 20.71L25.4597 20.4481C23.2429 19.915 21.5873 19.1386 20.4836 18.1285C19.3799 17.1183 18.8093 15.8556 18.8093 14.359C18.8093 13.1056 19.1741 11.9739 19.9037 10.9637C20.6333 9.95351 21.6247 9.16782 22.8875 8.59726C24.1502 8.0267 25.5532 7.74609 27.0965 7.74609C28.5463 7.74609 29.9213 8.00799 31.2401 8.54114C32.559 9.07429 33.7468 9.84127 34.8225 10.8327C34.1678 11.1321 33.4008 11.5249 32.5964 12.1048C31.8949 12.6005 31.3243 13.1056 30.866 13.564C30.8005 13.5172 30.707 13.4517 30.5854 13.3675C30.1364 13.0869 29.7342 12.9466 29.5378 12.8531C28.7895 12.5257 27.9664 12.3667 27.0872 12.3667C26.2079 12.3667 25.4503 12.5257 24.9078 12.8531C24.3653 13.1805 24.0941 13.6294 24.0941 14.1813C24.0941 14.4432 24.1689 14.6677 24.3466 14.8641C24.5243 15.0605 24.7769 15.2195 25.151 15.3785C25.5251 15.5375 26.0396 15.6965 26.6943 15.8649L27.77 16.1455C30.2674 16.7348 32.11 17.5579 33.2792 18.6148C34.4484 19.6718 35.0376 21.028 35.0376 22.6649C35.0376 23.9837 34.6728 25.1529 33.9526 26.1911C33.2324 27.2294 32.2129 28.0338 30.9127 28.6137C29.6126 29.1936 28.0973 29.4742 26.395 29.4742C24.6927 29.4742 23.1868 29.1936 21.765 28.6137L21.7183 28.6324V28.6418Z" fill="#313131"/>
<path d="M42.0721 28.0884C40.4259 27.1437 39.1258 25.8342 38.1717 24.1693C37.2177 22.5043 36.75 20.6617 36.75 18.632C36.75 16.6023 37.227 14.7316 38.1717 13.076C39.1164 11.4205 40.4166 10.1203 42.0721 9.17564C43.7277 8.23093 45.5516 7.75391 47.5626 7.75391C49.5736 7.75391 51.435 8.23093 53.0812 9.17564C54.7274 10.1203 56.0182 11.4111 56.9535 13.076C57.8889 14.741 58.3659 16.5742 58.3659 18.632C58.3659 20.6898 57.8889 22.495 56.9535 24.1693C56.0182 25.8435 54.7274 27.1343 53.0812 28.0884C51.435 29.0424 49.6017 29.5101 47.5626 29.5101C45.5236 29.5101 43.7277 29.0331 42.0721 28.0884ZM50.3313 23.58C51.1544 23.0936 51.7904 22.4202 52.2394 21.5596C52.6883 20.6991 52.9128 19.7264 52.9128 18.6226C52.9128 17.5189 52.6883 16.5275 52.2394 15.6763C51.7904 14.8251 51.1544 14.1517 50.3313 13.6653C49.5081 13.1789 48.5822 12.9451 47.5533 12.9451C46.5244 12.9451 45.5984 13.1883 44.794 13.6653C43.9896 14.1423 43.3442 14.8158 42.8859 15.6763C42.4276 16.5368 42.1844 17.5189 42.1844 18.6226C42.1844 19.7264 42.4182 20.6898 42.8859 21.5596C43.3536 22.4295 43.9802 23.0936 44.794 23.58C45.6077 24.0664 46.5244 24.3096 47.5533 24.3096C48.5822 24.3096 49.5081 24.0664 50.3313 23.58Z" fill="#313131"/>
<path d="M75.4628 22.9534C74.0598 21.1576 72.6755 19.5768 71.3379 18.1925C71.8056 17.5004 72.2826 16.7988 72.7971 16.088C74.939 13.1229 77.1745 10.5414 79.3819 8.31524H72.7316C71.4315 9.52184 70.0004 11.0184 68.5786 12.8236C67.8771 13.7122 67.2598 14.5727 66.708 15.4145C66.6892 13.469 66.7173 11.4861 66.8295 9.4096C66.9979 6.06105 67.3346 2.90893 67.7742 0H60.6562C61.1239 4.13424 61.4513 8.72679 61.47 13.7216C61.5074 19.3056 61.1613 24.4032 60.6562 28.9303H67.7742C67.372 26.2459 67.054 23.3182 66.8576 20.1661C67.7649 21.1482 68.7002 22.2332 69.6262 23.4772C71.0854 25.4228 72.2265 27.2841 73.1057 28.9303H79.597C78.4559 27.069 77.0903 25.0299 75.4628 22.9441V22.9534Z" fill="#313131"/>
</svg>
